<svg width="19" height="17" viewBox="0 0 19 17" fill="none" xmlns="http://www.w3.org/2000/svg">
<path d="M0.599976 5.51476C0.599976 2.85287 2.75015 0.649902 5.46484 0.649902C7.58683 0.649902 8.95919 2.00866 9.59998 2.83663C10.2408 2.00866 11.6132 0.649902 13.7351 0.649902C16.4506 0.649902 18.6 2.85292 18.6 5.51476C18.6 6.67977 18.1328 7.83612 17.4534 8.9149C16.7716 9.9975 15.852 11.0402 14.89 11.9876C13.5567 13.3007 12.0757 14.4886 11.0134 15.3406C10.5618 15.7028 10.1859 16.0043 9.92928 16.2289C9.74068 16.3938 9.45924 16.3938 9.27073 16.2289C9.01403 16.0043 8.63813 15.7028 8.18657 15.3406C7.12429 14.4886 5.64324 13.3007 4.30995 11.9876C3.348 11.0402 2.42834 9.9975 1.74657 8.9149C1.06722 7.83612 0.599976 6.67977 0.599976 5.51476ZM5.46484 1.6499C3.30927 1.6499 1.59998 3.39828 1.59998 5.51476C1.59998 6.41733 1.96551 7.38597 2.59275 8.38198C3.21757 9.3741 4.07831 10.3559 5.01163 11.2751C6.31031 12.5541 7.68421 13.6549 8.73394 14.496C9.05726 14.7551 9.34983 14.9895 9.59998 15.1969C9.85008 14.9895 10.1427 14.7551 10.466 14.496C11.5158 13.6549 12.8897 12.5541 14.1883 11.2751C15.1217 10.3559 15.9824 9.3741 16.6072 8.38198C17.2345 7.38597 17.6 6.41733 17.6 5.51476C17.6 3.39823 15.8914 1.6499 13.7351 1.6499C11.6406 1.6499 10.4181 3.35201 10.1033 3.86018C9.87267 4.2324 9.32725 4.23239 9.09668 3.86017C8.78188 3.352 7.55942 1.6499 5.46484 1.6499Z" fill="#1F2026"/>
</svg>
