<svg width="11" height="13" viewBox="0 0 11 13" fill="none" xmlns="http://www.w3.org/2000/svg">
<path fill-rule="evenodd" clip-rule="evenodd" d="M5.01196 0.19397C4.7013 0.19397 4.44946 0.44581 4.44946 0.75647C4.44946 1.06713 4.7013 1.31897 5.01196 1.31897H6.13696C6.44762 1.31897 6.69946 1.06713 6.69946 0.75647C6.69946 0.44581 6.44762 0.19397 6.13696 0.19397H5.01196ZM9.69946 6.94397C9.69946 9.22214 7.85263 11.069 5.57446 11.069C3.29629 11.069 1.44946 9.22214 1.44946 6.94397C1.44946 4.6658 3.29629 2.81897 5.57446 2.81897C7.85263 2.81897 9.69946 4.6658 9.69946 6.94397ZM10.8245 6.94397C10.8245 9.84347 8.47396 12.194 5.57446 12.194C2.67497 12.194 0.324463 9.84347 0.324463 6.94397C0.324463 4.04448 2.67497 1.69397 5.57446 1.69397C6.82158 1.69397 7.96714 2.12881 8.86778 2.85515L9.51998 2.20296C9.73966 1.98329 10.0958 1.98329 10.3155 2.20296C10.5352 2.42263 10.5352 2.77879 10.3155 2.99846L9.66326 3.65065C10.3897 4.55129 10.8245 5.69685 10.8245 6.94397ZM6.13696 4.50853C6.13696 4.19787 5.88512 3.94603 5.57446 3.94603C5.2638 3.94603 5.01196 4.19787 5.01196 4.50853V7.1344C5.01196 7.44506 5.2638 7.6969 5.57446 7.6969C5.88512 7.6969 6.13696 7.44506 6.13696 7.1344V4.50853Z" fill="#F4488D"/>
</svg>
