<svg width="33" height="33" viewBox="0 0 33 33" fill="none" xmlns="http://www.w3.org/2000/svg">
<g filter="url(#filter0_i_1_18693)">
<rect x="0.599976" y="0.520004" width="32" height="32" rx="16" fill="white" fill-opacity="0.01"/>
<path d="M12.6 14.52V12.52H10.6V17.02C10.6 17.2961 10.3761 17.52 10.1 17.52C9.82384 17.52 9.59998 17.2961 9.59998 17.02V11.52H12.6C12.6 9.11628 14.5522 7.52 16.6 7.52C18.6575 7.52 20.6 9.22556 20.6 11.52H23.6V24.02C23.6 24.8484 22.9284 25.52 22.1 25.52H17.1C16.8239 25.52 16.6 25.2961 16.6 25.02C16.6 24.7439 16.8239 24.52 17.1 24.52H22.1C22.3761 24.52 22.6 24.2961 22.6 24.02V12.52H20.6V14.52H19.6V12.52H13.6V14.52H12.6ZM16.6 8.52C15.0477 8.52 13.6 9.72372 13.6 11.52H19.6C19.6 9.81444 18.1425 8.52 16.6 8.52Z" fill="#1F2026"/>
<path d="M12.1 18.52C12.3761 18.52 12.6 18.7439 12.6 19.02V21.52H15.1C15.3761 21.52 15.6 21.7439 15.6 22.02C15.6 22.2961 15.3761 22.52 15.1 22.52H12.6V25.02C12.6 25.2961 12.3761 25.52 12.1 25.52C11.8238 25.52 11.6 25.2961 11.6 25.02V22.52H9.09998C8.82384 22.52 8.59998 22.2961 8.59998 22.02C8.59998 21.7439 8.82384 21.52 9.09998 21.52H11.6V19.02C11.6 18.7439 11.8238 18.52 12.1 18.52Z" fill="#1F2026"/>
</g>
<defs>
<filter id="filter0_i_1_18693" x="0.599976" y="0.520004" width="32" height="32" filterUnits="userSpaceOnUse" color-interpolation-filters="sRGB">
<feFlood flood-opacity="0" result="BackgroundImageFix"/>
<feBlend mode="normal" in="SourceGraphic" in2="BackgroundImageFix" result="shape"/>
<feColorMatrix in="SourceAlpha" type="matrix" values="0 0 0 0 0 0 0 0 0 0 0 0 0 0 0 0 0 0 127 0" result="hardAlpha"/>
<feMorphology radius="1" operator="erode" in="SourceAlpha" result="effect1_innerShadow_1_18693"/>
<feOffset/>
<feComposite in2="hardAlpha" operator="arithmetic" k2="-1" k3="1"/>
<feColorMatrix type="matrix" values="0 0 0 0 0.211765 0 0 0 0 0.211765 0 0 0 0 0.25098 0 0 0 0.2 0"/>
<feBlend mode="normal" in2="shape" result="effect1_innerShadow_1_18693"/>
</filter>
</defs>
</svg>
