<svg width="27" height="25" viewBox="0 0 27 25" fill="none" xmlns="http://www.w3.org/2000/svg">
<path d="M1.35195 11.7933C0.879719 9.11521 0.643609 7.77611 0.984439 6.66132C1.28424 5.6807 1.88679 4.82018 2.70573 4.20307C3.63673 3.5015 4.97579 3.26539 7.65393 2.79317L15.744 1.36666C18.4221 0.894428 19.7612 0.658318 20.876 0.999148C21.8566 1.29895 22.7171 1.9015 23.3342 2.72044C24.0358 3.65144 24.2719 4.9905 24.7441 7.66861L25.8537 13.9611C26.3259 16.6393 26.562 17.9783 26.2212 19.0931C25.9214 20.0737 25.3188 20.9343 24.4999 21.5514C23.5689 22.2529 22.2298 22.489 19.5517 22.9613L11.4616 24.3878C8.78353 24.86 7.44444 25.0961 6.32964 24.7553C5.34903 24.4555 4.4885 23.8529 3.87139 23.034C3.16983 22.103 2.93371 20.7639 2.46149 18.0858L1.35195 11.7933Z" fill="#7000FF"/>
</svg>
