<svg width="27" height="25" viewBox="0 0 27 25" fill="none" xmlns="http://www.w3.org/2000/svg">
<path d="M1.35195 11.7932C0.879719 9.11515 0.643609 7.77605 0.984439 6.66126C1.28424 5.68064 1.88679 4.82012 2.70573 4.20301C3.63673 3.50144 4.97579 3.26533 7.65393 2.79311L15.744 1.3666C18.4221 0.894367 19.7612 0.658257 20.876 0.999087C21.8566 1.29889 22.7171 1.90144 23.3342 2.72038C24.0358 3.65138 24.2719 4.99044 24.7441 7.66855L25.8537 13.961C26.3259 16.6392 26.562 17.9782 26.2212 19.093C25.9214 20.0736 25.3188 20.9342 24.4999 21.5513C23.5689 22.2528 22.2298 22.4889 19.5517 22.9612L11.4616 24.3877C8.78353 24.8599 7.44444 25.096 6.32964 24.7552C5.34903 24.4554 4.4885 23.8528 3.87139 23.0339C3.16983 22.1029 2.93371 20.7638 2.46149 18.0857L1.35195 11.7932Z" fill="#7000FF"/>
</svg>
