<svg width="16" height="13" viewBox="0 0 16 13" fill="none" xmlns="http://www.w3.org/2000/svg">
<path d="M12.1487 0.0839844C12.6311 0.190184 13.0979 0.280884 13.5559 0.398084C14.0426 0.521984 14.5249 0.672484 15.0072 0.807384C15.0758 0.827284 15.1024 0.853884 15.1024 0.931284C15.1001 2.43798 15.1156 3.94688 15.0957 5.45358C15.0736 7.07308 14.5625 8.53768 13.578 9.82528C12.4806 11.2612 11.0447 12.186 9.28808 12.6064C8.59558 12.7723 7.88978 12.8276 7.17958 12.7856C5.49148 12.686 3.99588 12.0909 2.71708 10.9869C1.39847 9.85188 0.566587 8.42268 0.232507 6.71018C0.137377 6.22348 0.0997667 5.73008 0.0997667 5.23448C0.0975467 3.80748 0.0997669 2.38268 0.0953369 0.955684C0.0953369 0.860484 0.126317 0.827284 0.212597 0.800784C1.13298 0.506484 2.07108 0.274184 3.02018 0.101684C3.02908 0.0993836 3.03788 0.101684 3.05998 0.0993843C3.05998 0.137084 3.05998 0.174684 3.05998 0.210084C3.05998 1.99988 3.05338 3.79198 3.06448 5.58188C3.07108 6.48458 3.19278 7.37618 3.50028 8.23238C3.74368 8.91158 4.10428 9.51778 4.64188 10.009C5.14638 10.467 5.73708 10.7568 6.39858 10.8984C7.33448 11.0997 8.26808 11.0842 9.18628 10.7944C10.2704 10.4537 11.0226 9.73238 11.5049 8.71688C11.7638 8.17488 11.9187 7.59958 12.016 7.00888C12.1244 6.35178 12.151 5.68808 12.151 5.02428C12.151 3.42698 12.151 1.82738 12.151 0.229984C12.1487 0.187884 12.1487 0.148084 12.1487 0.0839844Z" fill="white"/>
</svg>
